<?xml version="1.0" encoding="UTF-8" standalone="no"?>
<svg
   xmlns:dc="http://purl.org/dc/elements/1.1/"
   xmlns:cc="http://creativecommons.org/ns#"
   xmlns:svg="http://www.w3.org/2000/svg"
   xmlns="http://www.w3.org/2000/svg"
   version="1.1"
   width="261"
   height="220"
   viewBox="0 0 261 220">
  <defs>
    <filter
       style="color-interpolation-filters:sRGB"
       id="filter1945"
       x="-0.022013148"
       width="1.0440263"
       y="-0.034630089"
       height="1.0692602">
      <feGaussianBlur
         stdDeviation="1.3855038"
         id="feGaussianBlur1947" />
    </filter>
    <filter
       style="color-interpolation-filters:sRGB"
       id="filter1949"
       x="-0.054557375"
       width="1.1091147"
       y="-0.08874945"
       height="1.1774989">
      <feGaussianBlur
         stdDeviation="1.3855038"
         id="feGaussianBlur1951" />
    </filter>
    <filter
       style="color-interpolation-filters:sRGB"
       id="filter1953"
       x="-0.019087621"
       width="1.0381752"
       y="-0.024538525"
       height="1.0490771">
      <feGaussianBlur
         stdDeviation="1.3855038"
         id="feGaussianBlur1955" />
    </filter>
    <filter
       style="color-interpolation-filters:sRGB"
       id="filter1957"
       x="-0.057256103"
       width="1.1145122"
       y="-0.042548212"
       height="1.0850964">
      <feGaussianBlur
         stdDeviation="1.3855038"
         id="feGaussianBlur1959" />
    </filter>
    <filter
       style="color-interpolation-filters:sRGB"
       id="filter1961"
       x="-0.024733761"
       width="1.0494675"
       y="-0.047542522"
       height="1.095085">
      <feGaussianBlur
         stdDeviation="1.3855038"
         id="feGaussianBlur1963" />
    </filter>
  </defs>
  <g
     id="layer1"
     style="display:inline">
    <path
       style="fill:none;stroke:#ffffff;stroke-width:4;stroke-miterlimit:4;stroke-dasharray:none;stroke-opacity:1;filter:url(#filter1961)"
       d="m 162.63457,73.674948 c -0.27796,-0.454738 -0.98081,-2.599676 -1.56188,-4.766529 -3.85358,-14.370098 -19.79992,-22.159804 -39.55608,-19.322949 -5.33568,0.766168 -5.33568,0.766168 -9.03545,-4.605741 -5.2303,-7.594166 -16.655982,-17.931891 -24.037902,-21.749001 -7.25608,-3.752045 -7.47831,-4.401729 -2.88512,-8.43461 11.58684,-10.1733785 34.119742,-13.6693965 49.944532,-7.7489744 6.24065,2.3347786 7.46018,2.4016066 25.47058,1.3957596 44.78281,-2.5010377 78.12121,44.8678538 37.87929,53.8208308 -7.78721,1.73249 -11.08165,3.817509 -12.87579,8.148955 -1.19517,2.885374 -1.28498,2.916151 -8.5402,2.926619 -4.03279,0.0058 -8.89931,0.269745 -10.81448,0.586506 -1.91517,0.316761 -3.70956,0.203872 -3.9875,-0.250866 z"
       />
    <path
       style="fill:none;stroke:#ffffff;stroke-width:4;stroke-miterlimit:4;stroke-dasharray:none;stroke-opacity:1;filter:url(#filter1957)"
       d="m 242.19076,119.90625 c -3.7476,-2.12975 -8.21746,-3.68973 -12.7653,-4.45508 -6.301,-1.06039 -7.05176,-1.42195 -7.53423,-3.62846 -3.25076,-14.866478 -9.72678,-25.149431 -20.03847,-31.818141 -8.1597,-5.276985 -7.62956,-8.497626 1.89183,-11.493292 11.76694,-3.702164 17.42284,-9.717249 19.19392,-20.41284 0.74214,-4.48174 1.15775,-4.475155 6.95875,0.110265 21.76364,17.203174 29.52197,43.490606 20.81718,70.534558 -1.72939,5.37283 -1.23467,5.30533 -8.52368,1.16299 z"
        />
    <path
       style="fill:none;stroke:#ffffff;stroke-width:4;stroke-miterlimit:4;stroke-dasharray:none;stroke-opacity:1;filter:url(#filter1953)"
       d="m 195.22937,212.67905 c -18.77748,-6.97751 -31.80029,-19.89437 -35.83043,-35.53895 -1.70796,-6.63009 -1.70796,-6.63009 -10.92096,-6.06882 -8.0872,0.49269 -9.78328,0.30902 -13.87979,-1.50306 -4.66678,-2.06434 -4.66678,-2.06434 -11.01212,0.56593 -20.97099,8.69292 -51.723272,-7.75159 -49.752712,-26.60484 2.00552,-19.18782 11.99436,-27.01348 37.463292,-29.35026 29.60401,-2.71619 43.81741,-10.66697 48.80025,-27.298179 3.28842,-10.975799 31.47987,-8.748009 43.67959,3.451718 8.12381,8.123803 13.94468,25.190711 9.11447,26.723771 -8.95879,2.8434 -16.30988,17.52771 -13.18826,26.34444 2.88288,8.14239 7.4294,6.02573 6.69552,-3.11712 -1.02057,-12.71391 8.9414,-20.56754 22.76382,-17.94617 33.65854,6.38321 19.43861,45.28015 -21.57283,59.00988 -12.77633,4.27725 -11.82251,19.11901 1.68203,26.17282 3.49954,1.82791 3.34943,2.53071 -1.18084,5.52869 -4.59545,3.04113 -3.6049,3.06963 -12.86103,-0.36985 z"
        />
    <path
       style="fill:none;stroke:#ffffff;stroke-width:4;stroke-miterlimit:4;stroke-dasharray:none;stroke-opacity:1;filter:url(#filter1949)"
       d="M 42.523888,150.22585 C 23.239096,146.82473 2.0317921,126.66806 10.566293,119.85146 c 17.565352,-14.02965 64.438035,-4.1068 58.487355,12.38164 -0.804144,2.22817 -1.989779,6.83703 -2.634743,10.24189 -1.026535,5.41925 -1.485525,6.27435 -3.683373,6.86214 -4.562398,1.22018 -15.584243,1.70481 -20.211644,0.88872 z"
        />
    <path
       style="fill:none;stroke:#ffffff;stroke-width:4;stroke-miterlimit:4;stroke-dasharray:none;stroke-opacity:1;filter:url(#filter1945)"
       d="M 69.663621,117.45189 C 53.037342,103.14247 31.198022,100.75682 10.695684,111.01045 3.9563061,114.38094 4.2998771,114.63164 3.6386051,105.8608 2.6288231,92.467451 7.6152571,79.626345 17.939713,69.032447 c 4.560892,-4.67992 6.552523,-7.455753 6.559062,-9.141681 0.05476,-14.119958 25.646519,-35.020534 43.747099,-35.727888 12.054604,-0.471081 31.143284,12.792567 40.825056,28.367031 3.98917,6.417117 4.80569,6.783699 10.96575,4.923133 18.24321,-5.510137 34.77077,3.74059 34.52692,19.325262 -0.27744,17.731771 -18.1513,30.164376 -43.41462,30.198076 -13.313472,0.0178 -24.514572,3.55057 -31.625082,9.97449 -4.63022,4.18312 -5.52894,4.22879 -9.860277,0.50102 z"
        />
  </g>
  <g
     id="layer2"
     style="display:inline">
    <path
       style="fill:none;stroke:#eeb135;stroke-width:3;stroke-miterlimit:4;stroke-dasharray:none;stroke-opacity:1"
       d="M 162.63456,73.674946 C 162.3566,73.220208 161.65375,71.07527 161.07268,68.908417 157.2191,54.538319 141.27276,46.748613 121.5166,49.585468 c -5.33568,0.766168 -5.33568,0.766168 -9.03545,-4.605741 -5.2303,-7.594166 -16.655979,-17.931891 -24.037889,-21.749001 -7.25609,-3.752045 -7.47832,-4.401729 -2.88512,-8.43461 11.58684,-10.173378 34.119729,-13.669397 49.944519,-7.748974 6.24065,2.334778 7.46018,2.401606 25.47058,1.395759 44.78281,-2.501038 78.12121,44.867854 37.87929,53.820831 -7.78721,1.73249 -11.08165,3.817509 -12.87579,8.148955 -1.19517,2.885374 -1.28498,2.916151 -8.5402,2.926619 -4.03279,0.0058 -8.89931,0.269745 -10.81448,0.586506 -1.91517,0.316761 -3.70956,0.203872 -3.9875,-0.250866 z"
        />
    <path
       style="fill:none;stroke:#1eacba;stroke-width:3;stroke-miterlimit:4;stroke-dasharray:none;stroke-opacity:1"
       d="m 242.19075,119.90625 c -3.7476,-2.12975 -8.21746,-3.68973 -12.7653,-4.45508 -6.301,-1.06039 -7.05176,-1.42195 -7.53423,-3.62846 -3.25076,-14.86648 -9.72678,-25.149433 -20.03847,-31.818143 -8.1597,-5.276985 -7.62956,-8.497626 1.89183,-11.493292 11.76694,-3.702164 17.42284,-9.717249 19.19392,-20.41284 0.74214,-4.48174 1.15775,-4.475155 6.95875,0.110265 21.76364,17.203174 29.52197,43.490606 20.81718,70.53456 -1.72939,5.37283 -1.23467,5.30533 -8.52368,1.16299 z"
       />
    <path
       style="fill:none;stroke:#7b3f8c;stroke-width:3;stroke-miterlimit:4;stroke-dasharray:none;stroke-opacity:1"
       d="m 195.22936,212.67905 c -18.77748,-6.97751 -31.80029,-19.89437 -35.83043,-35.53895 -1.70796,-6.63009 -1.70796,-6.63009 -10.92096,-6.06882 -8.0872,0.49269 -9.78328,0.30902 -13.87979,-1.50306 -4.66678,-2.06434 -4.66678,-2.06434 -11.01212,0.56593 -20.97099,8.69292 -51.723259,-7.75159 -49.752709,-26.60484 2.00553,-19.18782 11.99437,-27.01348 37.463289,-29.35026 29.60401,-2.71619 43.81741,-10.66697 48.80025,-27.298181 3.28842,-10.975799 31.47987,-8.748009 43.67959,3.451718 8.12381,8.123803 13.94468,25.190713 9.11447,26.723773 -8.95879,2.8434 -16.30988,17.52771 -13.18826,26.34444 2.88288,8.14239 7.4294,6.02573 6.69552,-3.11712 -1.02057,-12.71391 8.9414,-20.56754 22.76382,-17.94617 33.65854,6.38321 19.43861,45.28015 -21.57283,59.00988 -12.77633,4.27725 -11.82251,19.11901 1.68203,26.17282 3.49954,1.82791 3.34943,2.53071 -1.18084,5.52869 -4.59545,3.04113 -3.6049,3.06963 -12.86103,-0.36985 z"
       />
    <path
       style="fill:none;stroke:#bf2e52;stroke-width:3;stroke-miterlimit:4;stroke-dasharray:none;stroke-opacity:1"
       d="m 42.523891,150.22585 c -19.2848,-3.40112 -40.4921,-23.55779 -31.9576,-30.37439 17.56535,-14.02965 64.43803,-4.1068 58.48736,12.38164 -0.80415,2.22817 -1.98978,6.83703 -2.63475,10.24189 -1.02653,5.41925 -1.48552,6.27435 -3.68337,6.86214 -4.5624,1.22018 -15.58424,1.70481 -20.21164,0.88872 z"
        />
    <path
       style="fill:none;stroke:#bf2e52;stroke-width:3;stroke-miterlimit:4;stroke-dasharray:none;stroke-opacity:1"
       d="m 69.663621,117.45189 c -16.62628,-14.30942 -38.4656,-16.69507 -58.96794,-6.44144 -6.73938,3.37049 -6.3958,3.62119 -7.05708,-5.14965 -1.00978,-13.393351 3.97666,-26.234457 14.30111,-36.828355 4.56089,-4.67992 6.55252,-7.455753 6.55906,-9.141681 0.0548,-14.119958 25.64652,-35.020534 43.7471,-35.727888 12.0546,-0.471081 31.14329,12.792567 40.825049,28.367031 3.98917,6.417117 4.80569,6.783699 10.96575,4.923133 18.24321,-5.510137 34.77077,3.74059 34.52692,19.325262 -0.27744,17.731771 -18.1513,30.164378 -43.41462,30.198078 -13.313469,0.0178 -24.514569,3.55057 -31.625079,9.97449 -4.63022,4.18312 -5.52893,4.22879 -9.86027,0.50102 z"
        />
  </g>
</svg>
